<svg xmlns="http://www.w3.org/2000/svg" xmlns:android="http://schemas.android.com/apk/res/android" autoMirrored="true" width="@dimen/dp_36" height="@dimen/dp_37" viewportWidth="36" viewportHeight="37">
	<group>
		<path fill="@color/black" d="M6.48 0C4.16 0 2.54 0.79 1.53 1.6 0.52 2.4 0.07 3.29 0.07 3.29-0.11 3.65 0.05 4.08 0.4 4.25 0.77 4.43 1.2 4.28 1.37 3.92c0 0 0.27-0.56 1.06-1.2 0.71-0.57 1.9-1.1 3.58-1.21l12.13 30.76c0.07 0.17 0.2 0.32 0.38 0.4 0.18 0.07 0.38 0.07 0.56 0l16.11-6.3c0.37-0.14 0.56-0.56 0.42-0.93-0.15-0.38-0.56-0.56-0.94-0.42l-15.46 6.05L7.16 0.45C7.05 0.17 6.78 0 6.48 0Zm20.14 0l-0.14 0.05-14.71 5.87c-0.37 0.14-0.55 0.55-0.4 0.92l2.15 5.42 2.07 5.15 0.05 0.14c0.01 0.05 0.04 0.1 0.06 0.13l2.14 5.4 2.05 5.16c0.07 0.18 0.21 0.32 0.39 0.4 0.18 0.08 0.38 0.08 0.55 0l14.72-5.85c0.18-0.07 0.32-0.2 0.4-0.39 0.08-0.17 0.08-0.37 0-0.55L31.7 11.18l-0.02-0.02c-0.02-0.05-0.04-0.1-0.07-0.13L27.43 0.45C27.3 0.15 27-0.03 26.68 0h-0.06Zm-0.27 1.67l3.73 9.36-1.8 0.71-11.59 4.6-1.82-4.62-1.89-4.74 13.37-5.31Zm-3.27 2.85c-0.03 0-0.06 0.02-0.08 0.03-0.04 0-0.08 0.02-0.12 0.04l-5.35 2.14c-0.28 0.06-0.5 0.28-0.55 0.56-0.05 0.27 0.06 0.56 0.29 0.72 0.22 0.17 0.53 0.19 0.78 0.05l5.35-2.12c0.38-0.1 0.62-0.48 0.53-0.86-0.08-0.39-0.46-0.63-0.84-0.56Zm7.54 7.83l3.71 9.38-13.36 5.32-1.8-4.5-1.94-4.87 0.82-0.31 12.57-5.02Zm-3.21 2.86l-0.1 0.02-0.17 0.07-5.36 2.11c-0.37 0.15-0.55 0.58-0.4 0.95 0.14 0.37 0.57 0.55 0.94 0.4l5.36-2.13c0.39-0.08 0.64-0.46 0.57-0.85-0.08-0.39-0.45-0.65-0.84-0.57ZM13.68 28.8c-1.98 0-3.6 1.62-3.6 3.6s1.62 3.6 3.6 3.6 3.6-1.62 3.6-3.6-1.62-3.6-3.6-3.6Zm0 1.44c1.2 0 2.16 0.96 2.16 2.16 0 1.2-0.96 2.16-2.16 2.16-1.2 0-2.16-0.96-2.16-2.16 0-1.2 0.96-2.16 2.16-2.16Z"/>
	</group>
	<path fill="PrimaryDark" d="M13.32 28.44A3.96 3.96 0 1 0 13.32 36.36 3.96 3.96 0 1 0 13.32 28.44z"/>
</svg>
